# xmcd CD database file
#
# Track frame offsets:
#	182
#	16677
#	26845
#	42860
#	50860
#	62392
#	75915
#	86102
#	100947
#	118400
#
# Disc length: 1759 seconds
#
# Revision: 0
# Processed by: cddbd v1.5.2PL0 Copyright (c) Steve Scherf et al.
# Submitted via: ACXtractor (MTCDDB.DLL V2003.12.21)
#
DISCID=7906dd0a
DTITLE=J.R. Williams - Back on the Border
DYEAR=2008
DGENRE=Country
TTITLE0=A Legend in his Time
TTITLE1=Back on the Border
TTITLE2=Wild Side of Life
TTITLE3=Big River
TTITLE4=Pioneers
TTITLE5=Losin' Side of Love
TTITLE6=Let Love Have Its Way
TTITLE7=Friday Arvo Behind the Bar
TTITLE8=Tribute to my Old Dad
TTITLE9=Tennessee Waltz
EXTD=ID3G:   2 YEAR: 2008
EXTT0=
EXTT1=
EXTT2=
EXTT3=
EXTT4=
EXTT5=
EXTT6=
EXTT7=
EXTT8=
EXTT9=
PLAYORDER=
